<mxfile host="app.diagrams.net" modified="2021-03-11T05:06:11.189Z" agent="5.0 (Windows NT 10.0; Win64; x64) AppleWebKit/537.36 (KHTML, like Gecko) Chrome/80.0.3987.116 Safari/537.36" etag="A8AiPEvA2-RijcFaiPgc" version="14.4.7" type="github">
  <diagram id="MRhx2yrZEBXJb9mPiW60" name="Page-1">
    <mxGraphModel dx="1038" dy="575" grid="1" gridSize="10" guides="1" tooltips="1" connect="1" arrows="1" fold="1" page="1" pageScale="1" pageWidth="827" pageHeight="1169" math="0" shadow="0">
      <root>
        <mxCell id="0" />
        <mxCell id="1" parent="0" />
        <mxCell id="q3EU0tbVYxhkbZcssHCq-4" style="edgeStyle=orthogonalEdgeStyle;rounded=0;orthogonalLoop=1;jettySize=auto;html=1;entryX=0;entryY=0.5;entryDx=0;entryDy=0;" edge="1" parent="1" source="q3EU0tbVYxhkbZcssHCq-1" target="q3EU0tbVYxhkbZcssHCq-3">
          <mxGeometry relative="1" as="geometry" />
        </mxCell>
        <mxCell id="q3EU0tbVYxhkbZcssHCq-1" value="Thread01" style="rounded=0;whiteSpace=wrap;html=1;" vertex="1" parent="1">
          <mxGeometry x="120" y="130" width="120" height="60" as="geometry" />
        </mxCell>
        <mxCell id="q3EU0tbVYxhkbZcssHCq-5" style="edgeStyle=orthogonalEdgeStyle;rounded=0;orthogonalLoop=1;jettySize=auto;html=1;entryX=0;entryY=0.5;entryDx=0;entryDy=0;" edge="1" parent="1" source="q3EU0tbVYxhkbZcssHCq-2" target="q3EU0tbVYxhkbZcssHCq-3">
          <mxGeometry relative="1" as="geometry" />
        </mxCell>
        <mxCell id="q3EU0tbVYxhkbZcssHCq-2" value="&lt;span&gt;Thread02&lt;/span&gt;" style="rounded=0;whiteSpace=wrap;html=1;" vertex="1" parent="1">
          <mxGeometry x="120" y="240" width="120" height="60" as="geometry" />
        </mxCell>
        <mxCell id="q3EU0tbVYxhkbZcssHCq-3" value="单例" style="rounded=1;whiteSpace=wrap;html=1;" vertex="1" parent="1">
          <mxGeometry x="359" y="180" width="110" height="40" as="geometry" />
        </mxCell>
        <mxCell id="q3EU0tbVYxhkbZcssHCq-6" value="地铁" style="whiteSpace=wrap;html=1;aspect=fixed;" vertex="1" parent="1">
          <mxGeometry x="260" y="370" width="240" height="240" as="geometry" />
        </mxCell>
        <mxCell id="q3EU0tbVYxhkbZcssHCq-7" value="检查口" style="whiteSpace=wrap;html=1;aspect=fixed;" vertex="1" parent="1">
          <mxGeometry x="350" y="570" width="80" height="80" as="geometry" />
        </mxCell>
        <mxCell id="q3EU0tbVYxhkbZcssHCq-10" value="抢占资源" style="text;html=1;strokeColor=none;fillColor=none;align=center;verticalAlign=middle;whiteSpace=wrap;rounded=0;" vertex="1" parent="1">
          <mxGeometry x="530" y="110" width="40" height="20" as="geometry" />
        </mxCell>
        <mxCell id="q3EU0tbVYxhkbZcssHCq-11" value="优化" style="rounded=0;whiteSpace=wrap;html=1;" vertex="1" parent="1">
          <mxGeometry x="330" y="730" width="120" height="60" as="geometry" />
        </mxCell>
        <mxCell id="q3EU0tbVYxhkbZcssHCq-12" value="地铁" style="whiteSpace=wrap;html=1;aspect=fixed;" vertex="1" parent="1">
          <mxGeometry x="260" y="860" width="240" height="240" as="geometry" />
        </mxCell>
        <mxCell id="q3EU0tbVYxhkbZcssHCq-13" value="检查口" style="whiteSpace=wrap;html=1;aspect=fixed;" vertex="1" parent="1">
          <mxGeometry x="414" y="870" width="80" height="80" as="geometry" />
        </mxCell>
      </root>
    </mxGraphModel>
  </diagram>
</mxfile>
